<svg width="1440" height="100" viewBox="0 0 1440 100" fill="none" xmlns="http://www.w3.org/2000/svg">
<path d="M0 68.0468L48 61.4123C96 54.8773 192 41.4593 288 33.5825C384 25.5565 480 23.0717 576 32.2655C672 41.4593 768 62.8287 864 69.3637C960 75.9982 1056 68.0468 1152 61.4123C1248 54.8773 1344 49.4107 1392 46.8514L1440 44.1926V99.8523H1392C1344 99.8523 1248 99.8523 1152 99.8523C1056 99.8523 960 99.8523 864 99.8523C768 99.8523 672 99.8523 576 99.8523C480 99.8523 384 99.8523 288 99.8523C192 99.8523 96 99.8523 48 99.8523H0V68.0468Z" fill="url(#paint0_linear)"/>
<path d="M1440 56.7056L1392 47.6746C1344 38.779 1248 20.5142 1152 9.79203C1056 -1.13305 960 -4.51542 864 7.99937C768 20.5142 672 49.6026 576 58.4982C480 67.5292 384 56.7056 288 47.6746C192 38.779 96 31.3378 48 27.8539L0 24.2348V100H48C96 100 192 100 288 100C384 100 480 100 576 100C672 100 768 100 864 100C960 100 1056 100 1152 100C1248 100 1344 100 1392 100H1440V56.7056Z" fill="url(#paint1_linear)"/>
<path d="M1440 44.4444L1392 50C1344 55.5556 1248 66.6667 1152 74.0625C1056 81.5972 960 85.0694 864 79.618C768 73.9583 672 59.375 576 57.3958C480 55.5556 384 66.6667 288 59.2708C192 51.7361 96 26.0417 48 12.9514L0 0V100H48C96 100 192 100 288 100C384 100 480 100 576 100C672 100 768 100 864 100C960 100 1056 100 1152 100C1248 100 1344 100 1392 100H1440V44.4444Z" fill="#4AB7FF"/>
<defs>
<linearGradient id="paint0_linear" x1="720" y1="26.3889" x2="720" y2="99.8523" gradientUnits="userSpaceOnUse">
<stop stop-color="#0099FF" stop-opacity="0.79"/>
<stop offset="1" stop-color="#0099FF"/>
</linearGradient>
<linearGradient id="paint1_linear" x1="720" y1="0" x2="720" y2="100" gradientUnits="userSpaceOnUse">
<stop stop-color="#0099FF" stop-opacity="0.79"/>
<stop offset="1" stop-color="#0099FF"/>
</linearGradient>
</defs>
</svg>
