<svg width="1440" height="300" viewBox="0 0 1440 300" fill="none" xmlns="http://www.w3.org/2000/svg">
<path d="M1440 30L1392 49.9687C1344 70.3125 1248 109.687 1152 109.969C1056 109.687 960 70.3125 864 70.0312C768 70.3125 672 109.688 576 150C480 190.313 384 229.687 288 235.031C192 240 96 210 48 195L0 180V-5.72205e-06H48C96 -5.72205e-06 192 -5.72205e-06 288 -5.72205e-06C384 -5.72205e-06 480 -5.72205e-06 576 -5.72205e-06C672 -5.72205e-06 768 -5.72205e-06 864 -5.72205e-06C960 -5.72205e-06 1056 -5.72205e-06 1152 -5.72205e-06C1248 -5.72205e-06 1344 -5.72205e-06 1392 -5.72205e-06H1440V30Z" fill="#0069AE"/>
<path d="M1440 256L1392 261.3C1344 267 1248 277 1152 277.3C1056 277 960 267 864 240C768 213 672 171 576 133.3C480 96 384 64 288 74.7C192 85 96 139 48 165.3L0 192V6.10352e-05H48C96 6.10352e-05 192 6.10352e-05 288 6.10352e-05C384 6.10352e-05 480 6.10352e-05 576 6.10352e-05C672 6.10352e-05 768 6.10352e-05 864 6.10352e-05C960 6.10352e-05 1056 6.10352e-05 1152 6.10352e-05C1248 6.10352e-05 1344 6.10352e-05 1392 6.10352e-05H1440V256Z" fill="url(#paint0_linear)"/>
<path d="M1440 253.822L1392 247.816C1344 241.357 1248 230.026 1152 205.437C1056 181.301 960 145.041 864 169.177C768 193.766 672 277.617 576 296.087C480 313.878 384 266.286 288 247.816C192 230.026 96 241.357 48 247.816L0 253.822V-8.64538e-06H48C96 -8.64538e-06 192 -8.64538e-06 288 -8.64538e-06C384 -8.64538e-06 480 -8.64538e-06 576 -8.64538e-06C672 -8.64538e-06 768 -8.64538e-06 864 -8.64538e-06C960 -8.64538e-06 1056 -8.64538e-06 1152 -8.64538e-06C1248 -8.64538e-06 1344 -8.64538e-06 1392 -8.64538e-06H1440V253.822Z" fill="url(#paint1_linear)"/>
<defs>
<linearGradient id="paint0_linear" x1="720" y1="277.3" x2="720" y2="6.10352e-05" gradientUnits="userSpaceOnUse">
<stop stop-color="#008AE7" stop-opacity="0.69"/>
<stop offset="1" stop-color="#019AFF"/>
</linearGradient>
<linearGradient id="paint1_linear" x1="720" y1="300" x2="720" y2="0" gradientUnits="userSpaceOnUse">
<stop stop-color="#4EAFF0" stop-opacity="0.59"/>
<stop offset="1" stop-color="#019AFF"/>
</linearGradient>
</defs>
</svg>
